<svg xmlns="http://www.w3.org/2000/svg" xmlns:xlink="http://www.w3.org/1999/xlink" viewBox="0 0 58 66" fill="#fff" fill-rule="evenodd" stroke="#000" stroke-linecap="round" stroke-linejoin="round"><use xlink:href="#A" x=".5" y=".5"/><symbol id="A" overflow="visible"><path d="M35.36 18.138h-6.567l-9.466 24.567h5.93l1.547-4.162h8.944l-1.62-4.604h-5.9l3.83-10.57 6.835 19.337h5.93zM55.633 50.16a1.35 1.35 0 0 0-1.102.571l-1.815 1.983a29.2 29.2 0 0 1-9.313 6.278c-3.6 1.527-7.446 2.3-11.402 2.3a29.1 29.1 0 0 1-11.402-2.301 29.19 29.19 0 0 1-9.312-6.278A29.22 29.22 0 0 1 5.008 43.4 29.04 29.04 0 0 1 2.693 32c0-3.955.775-7.792 2.3-11.402a29.18 29.18 0 0 1 6.28-9.313 29.24 29.24 0 0 1 9.312-6.28 29.11 29.11 0 0 1 11.402-2.301 29.11 29.11 0 0 1 11.402 2.301 29.51 29.51 0 0 1 7.023 4.218 3.32 3.32 0 0 0-.177 1.069c0 1.826 1.48 3.306 3.305 3.306s3.306-1.48 3.306-3.306-1.48-3.305-3.306-3.305a3.29 3.29 0 0 0-1.279.257A31.85 31.85 0 0 0 32 0C14.327 0 0 14.327 0 32s14.327 32 32 32c9.886 0 18.72-4.486 24.6-11.53a1.35 1.35 0 0 0 .396-.955c-.001-.75-.606-1.354-1.354-1.354z" stroke="none" fill="#333" fill-rule="nonzero"/></symbol></svg>